<?xml version="1.0" encoding="UTF-8" standalone="no"?>
<svg
   xmlns:dc="http://purl.org/dc/elements/1.1/"
   xmlns:cc="http://creativecommons.org/ns#"
   xmlns:rdf="http://www.w3.org/1999/02/22-rdf-syntax-ns#"
   xmlns:svg="http://www.w3.org/2000/svg"
   xmlns="http://www.w3.org/2000/svg"
   xmlns:sodipodi="http://sodipodi.sourceforge.net/DTD/sodipodi-0.dtd"
   xmlns:inkscape="http://www.inkscape.org/namespaces/inkscape"
   id="svg4306"
   width="22"
   height="22"
   version="1.1"
   style="enable-background:new"
   sodipodi:docname="close.svg"
   inkscape:version="0.92.4 5da689c313, 2019-01-14">
  <metadata
     id="metadata31">
    <rdf:RDF>
      <cc:Work
         rdf:about="">
        <dc:format>image/svg+xml</dc:format>
        <dc:type
           rdf:resource="http://purl.org/dc/dcmitype/StillImage" />
        <dc:title></dc:title>
      </cc:Work>
    </rdf:RDF>
  </metadata>
  <defs
     id="defs29" />
  <sodipodi:namedview
     pagecolor="#ffffff"
     bordercolor="#666666"
     borderopacity="1"
     objecttolerance="10"
     gridtolerance="10"
     guidetolerance="10"
     inkscape:pageopacity="0"
     inkscape:pageshadow="2"
     inkscape:window-width="1920"
     inkscape:window-height="1052"
     id="namedview27"
     showgrid="false"
     inkscape:zoom="10.727273"
     inkscape:cx="21.350925"
     inkscape:cy="11"
     inkscape:window-x="0"
     inkscape:window-y="0"
     inkscape:window-maximized="1"
     inkscape:current-layer="svg4306"
     inkscape:pagecheckerboard="true" />
  <g
     id="active-center">
    <rect
       id="rect4175"
       width="22"
       height="22"
       x="0"
       y="0"
       style="opacity:0.001;fill:#000000;fill-opacity:1;fill-rule:nonzero;stroke:none;stroke-width:2;stroke-linecap:round;stroke-linejoin:round;stroke-miterlimit:4;stroke-dasharray:none;stroke-opacity:1" />
    <g
       id="layer12"
       transform="matrix(1.0995673,0,0,1.0999678,-64.86885,-566.48296)"
       style="fill:#dfdfdf;fill-opacity:1">
      <g
         id="layer4-4-1"
         transform="matrix(1.0785824,0,0,1.0785824,15.918763,-303.12018)"
         style="display:inline;fill:#dfdfdf;fill-opacity:1">
        <path
           id="path10839-9"
           d="m 45.000169,763.57142 h 1.05357 c 0.01093,-1.2e-4 0.02191,-4.7e-4 0.03293,0 0.268609,0.0118 0.537185,0.13548 0.72433,0.32925 l 2.403459,2.40346 2.436384,-2.40346 c 0.279855,-0.24284 0.4706,-0.32187 0.724331,-0.32925 h 1.05357 v 1.05358 c 0,0.30181 -0.03618,0.58015 -0.263392,0.79017 l -2.40346,2.40346 2.370535,2.37055 c 0.19827,0.19824 0.296309,0.47773 0.296317,0.75724 V 772 h -1.05357 c -0.279514,-10e-6 -0.559011,-0.0981 -0.757255,-0.29632 l -2.40346,-2.40346 -2.403459,2.40346 C 46.61275,771.90195 46.333241,772 46.053739,772 h -1.05357 v -1.05358 c -4e-6,-0.2795 0.09805,-0.559 0.296317,-0.75724 l 2.403459,-2.37055 -2.403459,-2.40346 c -0.222032,-0.20505 -0.319401,-0.49438 -0.296317,-0.79017 z"
           style="color:#bebebe;font-style:normal;font-variant:normal;font-weight:normal;font-stretch:normal;font-size:medium;line-height:normal;font-family:'Andale Mono';-inkscape-font-specification:'Andale Mono';text-indent:0;text-align:start;text-decoration:none;text-decoration-line:none;letter-spacing:normal;word-spacing:normal;text-transform:none;writing-mode:lr-tb;direction:ltr;text-anchor:start;display:inline;overflow:visible;visibility:visible;fill:#dfdfdf;fill-opacity:1;fill-rule:nonzero;stroke:none;stroke-width:1.87667382;marker:none;enable-background:new"
           inkscape:connector-curvature="0" />
      </g>
    </g>
  </g>
  <rect
     style="opacity:0.00100002;fill:#000000;fill-opacity:1;fill-rule:nonzero;stroke:none;stroke-width:2;stroke-linecap:round;stroke-linejoin:round;stroke-miterlimit:4;stroke-dasharray:none;stroke-opacity:1"
     y="0"
     x="46"
     height="22"
     width="22"
     id="rect4211" />
  <circle
     style="opacity:0.55;fill:#ff6464;fill-opacity:1;fill-rule:nonzero;stroke:none;stroke-width:0;stroke-linecap:square;stroke-linejoin:round;stroke-miterlimit:4;stroke-dasharray:none;stroke-dashoffset:478.43673706;stroke-opacity:0.4"
     r="11"
     cy="11"
     cx="57"
     id="circle4215" />
  <path
     inkscape:connector-curvature="0"
     style="color:#bebebe;font-style:normal;font-variant:normal;font-weight:normal;font-stretch:normal;font-size:medium;line-height:normal;font-family:'Andale Mono';-inkscape-font-specification:'Andale Mono';text-indent:0;text-align:start;text-decoration:none;text-decoration-line:none;letter-spacing:normal;word-spacing:normal;text-transform:none;writing-mode:lr-tb;direction:ltr;text-anchor:start;display:inline;overflow:visible;visibility:visible;fill:#dfdfdf;fill-opacity:1;fill-rule:nonzero;stroke:none;stroke-width:2.22609234;marker:none;enable-background:new"
     d="m 52.003931,6.0002923 h 1.249509 c 0.01296,-1.5e-4 0.02598,-5.75e-4 0.03905,0 0.318561,0.014 0.637086,0.1607201 0.859036,0.3906134 l 2.850443,2.8514795 2.889489,-2.8514795 c 0.3319,-0.2881164 0.55812,-0.3818637 0.859038,-0.3906134 H 62 v 1.2499633 c 0,0.3580773 -0.04291,0.6882927 -0.312375,0.9374728 l -2.850443,2.8514786 2.811396,2.812419 C 61.883719,14.086831 61.99999,14.418421 62,14.750037 V 16 h -1.249506 c -0.331496,-1.3e-5 -0.662974,-0.116375 -0.898086,-0.351551 l -2.850441,-2.85148 -2.850443,2.85148 C 53.916411,15.883679 53.584922,16 53.25344,16 h -1.249509 v -1.249963 c -4e-6,-0.331603 0.116275,-0.663206 0.351424,-0.898411 L 55.205798,11.039207 52.355355,8.1877284 C 52.092031,7.944448 51.976554,7.601183 52.003931,7.2502556 Z"
     id="path4221" />
  <g
     id="inactive-center"
     transform="translate(69,0)">
    <rect
       id="rect4225"
       width="22"
       height="22"
       x="0"
       y="0"
       style="opacity:0.001;fill:#000000;fill-opacity:1;fill-rule:nonzero;stroke:none;stroke-width:2;stroke-linecap:round;stroke-linejoin:round;stroke-miterlimit:4;stroke-dasharray:none;stroke-opacity:1" />
    <g
       id="g4227"
       transform="matrix(1.2495087,0,0,1.2499635,-72.964625,-647.48064)"
       style="fill:#dfdfdf;fill-opacity:1">
      <g
         id="g4229"
         transform="translate(18.199689,-241.19979)"
         style="display:inline;fill:#dfdfdf;fill-opacity:1">
        <path
           id="path4231"
           d="m 45,764 h 1 c 0.01037,-1.2e-4 0.02079,-4.6e-4 0.03125,0 0.254951,0.0112 0.50987,0.12858 0.6875,0.3125 L 49,766.59375 51.3125,764.3125 C 51.578125,764.082 51.759172,764.007 52,764 h 1 v 1 c 0,0.28647 -0.03434,0.55065 -0.25,0.75 l -2.28125,2.28125 2.25,2.25 C 52.906938,770.46942 52.999992,770.7347 53,771 v 1 h -1 c -0.265301,-10e-6 -0.530586,-0.0931 -0.71875,-0.28125 L 49,769.4375 46.71875,771.71875 C 46.530586,771.90694 46.26529,772 46,772 h -1 v -1 c -3e-6,-0.26529 0.09306,-0.53058 0.28125,-0.71875 l 2.28125,-2.25 L 45.28125,765.75 C 45.070508,765.55537 44.97809,765.28075 45,765 Z"
           style="color:#bebebe;font-style:normal;font-variant:normal;font-weight:normal;font-stretch:normal;font-size:medium;line-height:normal;font-family:'Andale Mono';-inkscape-font-specification:'Andale Mono';text-indent:0;text-align:start;text-decoration:none;text-decoration-line:none;letter-spacing:normal;word-spacing:normal;text-transform:none;writing-mode:lr-tb;direction:ltr;text-anchor:start;display:inline;overflow:visible;visibility:visible;opacity:0.3;fill:#dfdfdf;fill-opacity:1;fill-rule:nonzero;stroke:none;stroke-width:1.78124988;marker:none;enable-background:new"
           inkscape:connector-curvature="0" />
      </g>
    </g>
  </g>
  <g
     id="deactivated-center"
     transform="translate(92,0)">
    <rect
       id="rect4235"
       width="22"
       height="22"
       x="0"
       y="0"
       style="opacity:0.001;fill:#000000;fill-opacity:1;fill-rule:nonzero;stroke:none;stroke-width:2;stroke-linecap:round;stroke-linejoin:round;stroke-miterlimit:4;stroke-dasharray:none;stroke-opacity:1" />
    <g
       id="g4237"
       transform="matrix(0.99960695,0,0,0.99997077,-56.9717,-514.98451)"
       style="fill:#dfdfdf;fill-opacity:1">
      <g
         id="g4239"
         transform="translate(19,-242)"
         style="display:inline;fill:#dfdfdf;fill-opacity:1">
        <path
           id="path4241"
           d="m 45,764 1,0 c 0.01037,-1.2e-4 0.02079,-4.6e-4 0.03125,0 0.254951,0.0112 0.50987,0.12858 0.6875,0.3125 L 49,766.59375 51.3125,764.3125 C 51.578125,764.082 51.759172,764.007 52,764 l 1,0 0,1 c 0,0.28647 -0.03434,0.55065 -0.25,0.75 l -2.28125,2.28125 2.25,2.25 C 52.906938,770.46942 52.999992,770.7347 53,771 l 0,1 -1,0 c -0.265301,-10e-6 -0.530586,-0.0931 -0.71875,-0.28125 L 49,769.4375 46.71875,771.71875 C 46.530586,771.90694 46.26529,772 46,772 l -1,0 0,-1 c -3e-6,-0.26529 0.09306,-0.53058 0.28125,-0.71875 l 2.28125,-2.25 L 45.28125,765.75 C 45.070508,765.55537 44.97809,765.28075 45,765 l 0,-1 z"
           style="color:#bebebe;font-style:normal;font-variant:normal;font-weight:normal;font-stretch:normal;font-size:medium;line-height:normal;font-family:'Andale Mono';-inkscape-font-specification:'Andale Mono';text-indent:0;text-align:start;text-decoration:none;text-decoration-line:none;letter-spacing:normal;word-spacing:normal;text-transform:none;direction:ltr;block-progression:tb;writing-mode:lr-tb;text-anchor:start;display:inline;overflow:visible;visibility:visible;opacity:0.3;fill:#dfdfdf;fill-opacity:1;fill-rule:nonzero;stroke:none;stroke-width:1.78124988;marker:none;enable-background:new" />
      </g>
    </g>
  </g>
  <g
     id="hover-center">
    <rect
       id="rect4224"
       width="22"
       height="22"
       x="23"
       y="0"
       style="opacity:0.001;fill:#000000;fill-opacity:1;fill-rule:nonzero;stroke:none;stroke-width:2;stroke-linecap:round;stroke-linejoin:round;stroke-miterlimit:4;stroke-dasharray:none;stroke-opacity:1" />
    <circle
       id="circle4230"
       cx="34"
       cy="11"
       r="11"
       style="opacity:0.26;fill:#ff6464;fill-opacity:1;fill-rule:nonzero;stroke:none;stroke-width:0;stroke-linecap:square;stroke-linejoin:round;stroke-miterlimit:4;stroke-dasharray:none;stroke-dashoffset:478.43673706;stroke-opacity:0.4" />
    <path
       inkscape:connector-curvature="0"
       d="m 29.003931,6.0002542 h 1.249509 c 0.01292,-1.512e-4 0.02598,-5.775e-4 0.03905,0 0.318564,0.014025 0.637087,0.1607191 0.859037,0.3906123 l 2.850443,2.8514879 2.889488,-2.8514879 c 0.3319,-0.288109 0.558121,-0.3818538 0.859037,-0.3906123 h 1.249509 v 1.2499622 c 0,0.3580808 -0.04291,0.6882911 -0.312378,0.9374751 l -2.850441,2.8514875 2.811394,2.812412 c 0.235143,0.235201 0.351415,0.5668 0.351425,0.898412 v 1.249963 h -1.249511 c -0.331496,-1.4e-5 -0.662971,-0.116322 -0.898084,-0.35155 l -2.850441,-2.851488 -2.850442,2.851488 c -0.235112,0.235228 -0.566602,0.35155 -0.898084,0.35155 h -1.249509 v -1.249963 c -4e-6,-0.331599 0.116279,-0.663211 0.351424,-0.898412 L 32.205796,11.039179 29.355355,8.1876915 C 29.092031,7.9444199 28.976554,7.6011474 29.003931,7.2502164 Z"
       id="path4236"
       style="color:#bebebe;font-style:normal;font-variant:normal;font-weight:normal;font-stretch:normal;font-size:medium;line-height:normal;font-family:'Andale Mono';-inkscape-font-specification:'Andale Mono';text-indent:0;text-align:start;text-decoration:none;text-decoration-line:none;letter-spacing:normal;word-spacing:normal;text-transform:none;writing-mode:lr-tb;direction:ltr;text-anchor:start;display:inline;overflow:visible;visibility:visible;fill:#dfdfdf;fill-opacity:1;fill-rule:nonzero;stroke:none;stroke-width:2.2260921;marker:none;enable-background:new" />
  </g>
</svg>
